<svg width="35" height="35" viewBox="0 0 35 35" fill="none" xmlns="http://www.w3.org/2000/svg">
<path d="M34.375 0H0.625C0.25 0 0 0.25 0 0.625V34.375C0 34.75 0.25 35 0.625 35H34.375C34.75 35 35 34.75 35 34.375V0.625C35 0.25 34.75 0 34.375 0ZM3.875 28.5C3.5 28.5 3.25 28.25 3.25 27.875V17.875L10.5625 14.9375L17.4375 24.5625L21.625 18.5625L28.125 28.5H3.875ZM31.8125 27.875C31.8125 28.25 31.5625 28.5 31.1875 28.5H30.25L21.5625 16.375L17.4375 22.375L11 13.375L3.25 16.5V3.1875C3.25 2.8125 3.5 2.5625 3.875 2.5625H31.1875C31.5625 2.5625 31.8125 2.8125 31.8125 3.1875V27.875Z" fill="white"/>
<path d="M25.875 14.375C27.6009 14.375 29 12.9759 29 11.25C29 9.52408 27.6009 8.12497 25.875 8.12497C24.1491 8.12497 22.75 9.52408 22.75 11.25C22.75 12.9759 24.1491 14.375 25.875 14.375Z" fill="white"/>
</svg>
