<?xml version="1.0" encoding="utf-8"?>
<!-- Generator: Adobe Illustrator 20.1.0, SVG Export Plug-In . SVG Version: 6.00 Build 0)  -->
<svg version="1.1" id="Layer_1" xmlns="http://www.w3.org/2000/svg" xmlns:xlink="http://www.w3.org/1999/xlink" x="0px" y="0px"
	 viewBox="0 0 512 512" style="enable-background:new 0 0 512 512;" xml:space="preserve">
<style type="text/css">
	.st0{fill:#949BAD;}
</style>
<g>
	<path class="st0" d="M472,40c-53.3-53.3-139.8-53.3-193.1,0l-76.2,76.2c6-0.7,12.1-0.9,18.2-0.9c19.3,0,38,3.1,55.8,9L319.9,81
		c14.8-14.8,34.5-23,55.5-23c21,0,40.7,8.2,55.5,23c14.8,14.8,23,34.5,23,55.5c0,21-8.2,40.7-23,55.5l-84.5,84.5
		c-14.8,14.8-34.5,23-55.5,23c-21,0-40.7-8.2-55.5-23c-7.2-7.2-12.8-15.6-16.7-24.7c-9.6,0.5-18.6,4.5-25.5,11.4l-22.5,22.5
		c6.2,11.4,14.1,22.2,23.7,31.8c53.3,53.3,139.8,53.3,193.1,0L472,233C525.3,179.7,525.3,93.3,472,40z"/>
	<path class="st0" d="M291.9,396.8c-19.3,0-38.2-3.1-56.4-9.3L192,430.9c-14.8,14.8-34.5,23-55.5,23s-40.7-8.2-55.5-23
		c-14.8-14.8-23-34.5-23-55.5s8.2-40.7,23-55.5l84.5-84.5c14.8-14.8,34.5-23,55.5-23c21,0,40.7,8.2,55.5,23
		c7.2,7.2,12.9,15.6,16.8,24.7c9.7-0.5,18.7-4.5,25.5-11.4l22.5-22.5c-6.2-11.4-14.1-22.2-23.7-31.8c-53.3-53.3-139.8-53.3-193.1,0
		L40,278.9c-53.3,53.3-53.3,139.7,0,193.1c53.3,53.3,139.7,53.3,193.1,0l76.1-76.1C303.4,396.5,297.7,396.8,291.9,396.8L291.9,396.8
		L291.9,396.8z"/>
</g>
</svg>
