<svg xmlns="http://www.w3.org/2000/svg" xmlns:xlink="http://www.w3.org/1999/xlink" version="1.1" x="0px" y="0px" viewBox="0 0 100 125" enable-background="new 0 0 100 100" xml:space="preserve"><path d="M11.13,74.758C28,100,68,102,85,75c3-5,5-10,6-16c0-4,0-8,0-12c0-3-2-7-3-10c-5-14-18-22-33-24c-5-1-10,0-15,2  c-4,1-7,4-11,6c-4,3-7,7-10,12c-9,18-1,41,19,48c5,2,10,1,15,1c6-1,12-4,17-8c9-8,12-22,7-33c-4-7-10-12-17-15c-3-1-6-1-9-1  c-11,1-21,8-23,20c-2,11,6,22,17,25c4,0,7,1,11-1s8-5,10-9c-5,10-18,13-28,7c-4-3-7-6-9-11c-1-5-1-11,1-16c3-5,7-9,12-12  c11-5,25-2,32,9c4,7,5,14,4,22c-4,19-26,28-43,20c-6-3-10-8-14-13c-7-11-7-26,2-37c5-5,9-11,16-13c5-2,10-3,16-2c8,1,16,3,22,9  c15,13,17,33,8,50c-6,11-17,18-29,20c-15,2-29-3-39-13C11,73,7,65,5,56c5,27,35,46,61,34c4-2,7-5,11-8c5-4,8-10,11-16c3-8,3-16,1-24  c-2-7-6-14-12-19c-14-12-33-12-48-1c-4,4-7,8-9,13c-1,4-2,7-3,11c-2,11,4,19,10,27c3,3,7,4,10,6c5,3,10,3,15,2c8-1,15-5,20-11  c2-3,3-6,5-9c3-7,2-16-3-23c-4-4-8-8-13-10c-15-6-34,6-32,23c1,6,4,11,9,15c7,5,17,4,23-2c-7,7-18,6-25,0c-6-7-8-16-4-25  c1-3,4-6,6-8c3-1,6-4,9-4c6,0,11,0,16,2s9,7,12,12c6,14,0,32-15,37c-8,3-16,3-24,0c-17-8-23-30-14-46c2-4,5-6,8-9c3-2,6-5,10-6  c11-4,21-2,31,3c7,4,12,11,15,18c5,11,4,23-1,33S71,88,60,91c-17,5-35-1-46-16c-5-7-7-14-8-22c0-4,0-9,0-13C1,68,25,97,55,92  c4-1,8-2,12-4c15-8,24-23,22-40c-1-5-2-10-5-14c-2-3-4-7-7-9c-4-3-9-6-13-8c-6-2-13-2-20-1c-8,2-13,7-19,12c-6,7-8,16-7,25  c2,14,13,25,27,27c7,1,13-1,19-4c9-5,13-15,13-25c-1-17-19-29-35-21c-4,2-7,5-9,8c-2,5-3,10-2,16c1,5,4,8,8,11c5,4,11,4,17,2  c-8,3-17,0-22-7c-3-5-4-12-2-18c1-4,4-6,6-9c5-4,11-6,18-5c5,1,9,4,13,7c2,2,4,4,5,7c4,9,2,20-4,28c-9,11-25,13-37,5  c-10-7-16-17-14-29c1-4,2-7,3-11c9-19,33-24,50-13c5,3,8,8,11,12c4,7,5,14,5,22c-1,11-7,21-16,28c-6,3-11,6-18,7c-5,1-11,0-16-1  c-6-2-12-5-17-9c-2-3-5-5-7-8C4,58,5,40,14,25C1,45,6,73,27,85c5,3,10,6,16,6c7,0,14,0,21-3c4-2,7-4,11-7c5-4,7-9,10-14  c2-5,2-10,3-15c0-6-2-12-5-18c-4-7-10-12-17-15c-6-3-13-3-19-2c-9,1-16,6-22,13c-13,17-5,42,15,48c11,3,23,0,30-9c1-2,3-5,4-7  c7-17-8-38-27-33c-5,2-10,5-13,10s-3,11-1,17c3,6,8,10,15,11c-9-1-17-9-16-18c1-7,3-14,10-17c4-2,8-3,12-3c11,1,19,10,21,21  c1,8-2,17-9,22c-4,3-9,5-14,6c-7,1-13-1-19-5c-5-3-9-7-11-13c-2-4-3-9-2-14c1-4,2-7,3-11s5-6,7-9c3-3,6-5,10-6c20-8,45,6,46,28  c0,6,1,13-2,19c-7,15-23,24-39,23c-12-1-22-7-29-16C7,61,5,45,12,31c5-8,10-16,19-20C13,21,4,43,11,63c3,7,7,13,12,17c3,2,5,5,8,6  c7,2,14,5,21,4c5-1,9-2,14-4c6-3,10-7,14-12c2-3,4-7,5-10c4-14,1-28-11-38c-3-2-6-4-9-6c-12-5-26-3-35,6c-3,4-6,8-8,12  c-4,12-1,24,8,33c5,4,12,6,18,7c9,0,16-4,22-11c4-6,5-12,4-19c-2-8-7-14-14-17c-5-2-11-1-16,1c-12,5-15,22-5,31c-9-9-7-24,4-30  c4-2,8-2,12-2c2,0,5,1,7,2c13,7,15,26,5,36c-2,2-4,4-6,5c-6,3-13,4-20,2c-12-4-20-15-20-28c0-4,1-7,3-11c3-6,7-10,12-14  c16-10,38-3,46,14c1,4,2,7,3,11c1,7-1,14-3,20c-8,17-30,25-48,18c-3-1-6-4-9-5c-5-3-9-9-12-15C1,41,19,11,46,7c5,0,9,0,14,0  C32,3,5,26,10,56c1,6,3,10,6,15c4,5,8,10,14,13c4,2,8,3,13,4c8,1,15,0,22-3c5-2,8-6,12-9c8-10,11-24,6-36c-2-3-3-7-6-10  c-10-10-24-15-37-9c-10,5-16,14-18,25c-1,4,0,8,1,12c2,6,6,10,11,14c3,2,5,3,8,4c14,3,29-6,31-21c1-7-3-13-7-18c-9-9-26-7-31,5  c-1,3-2,6-1,9c-1-10,7-18,16-19c10-1,19,6,22,15c1,7,0,14-5,20c-3,3-6,5-10,7c-3,1-5,2-8,2c-15,0-29-14-26-31c1-4,2-7,3-10  c9-16,31-20,45-9c4,3,8,7,10,12c3,6,4,12,3,19c-2,8-5,15-11,21c-12,10-27,12-41,6c-11-6-19-16-21-29c-1-9,0-17,4-25c4-7,9-13,16-16  c4-1,7-4,11-5c19-4,39,4,48,21C76,5,38-1,19,24c-3,4-4,7-6,11c-5,12-3,24,4,35c3,3,5,6,8,9c5,4,10,7,16,8c8,1,16,0,23-3  c8-4,14-11,18-19c2-5,2-10,2-15c-1-8-4-14-9-20c-4-3-8-5-12-8c-3-2-7-1-10-1c-13-1-26,7-29,20c-3,11,0,22,10,29c3,2,6,4,10,5  c10,2,18-2,24-10c1-2,2-4,3-7c3-14-8-28-23-25c-4,1-6,3-9,5c7-6,19-8,26,0c4,5,7,11,6,17c-1,5-3,10-7,14c-6,5-13,6-20,5  c-3,0-6-1-8-3s-5-3-7-6c-6-7-7-17-4-25c2-3,2-6,5-9c7-7,15-11,25-10c6,1,12,3,17,7c5,6,10,12,11,20c2,18-10,35-28,38c-7,1-14,1-20-2  C17,76,8,57,13,38c2-6,5-11,9-16c4-4,8-7,13-9c6-2,13-4,20-4c14,2,27,10,34,22s7,26,3,38c9-24-4-54-31-59c-4,0-7-1-11-1  c-9,1-18,4-25,10c-9,9-15,20-13,33c2,6,2,12,6,18c5,7,11,11,18,14c5,2,10,3,16,2c4-1,7-2,11-3c9-4,17-12,18-22c1-4,3-7,2-11  c-2-8-4-14-9-20c-12-12-36-12-45,4c-3,5-6,10-5,16c2,13,12,25,26,24s24-16,19-29c-3-6-8-10-15-12c9,2,15,9,16,18c1,8-4,14-9,19  c-2,2-6,2-9,3c-5,1-10,0-14-2c-6-3-10-8-12-14c-3-9,0-16,4-24c2-4,6-6,10-8s8-2,12-3c4,0,9,1,13,3c7,3,12,9,15,16c2,5,2,10,2,15  c0,7-4,12-8,18c-11,13-29,15-44,6c-7-5-12-11-15-19c-4-11-2-22,4-32c2-3,4-6,7-9c10-8,22-10,34-9c9,2,16,7,23,13c18,19,13,49-8,65  c-4,3-8,2-11,6c28-11,41-48,19-71c-3-3-6-6-10-8c-5-2-10-4-15-5c-6-1-12,0-18,1c-6,2-12,5-16,10c-7,8-11,18-11,28c1,5,2,11,4,16  s6,8,10,12c5,4,11,6,18,7c5,1,10,0,15-2c8-4,15-9,19-17c5-13,3-28-8-37c-9-7-21-9-31-4c-5,3-10,6-12,12c-5,13-2,29,12,34  c5,2,9,1,14,1c5-1,8-5,11-8c2-2,3-5,4-7c1-3,0-6,0-9c-1-2-2-5-3-7c4,9,4,19-3,26c-7,5-17,8-25,3c-4-3-7-6-9-10c-2-5-4-9-3-14  s2-10,6-14c6-7,16-9,25-8c14,2,24,15,24,29c0,6-3,12-6,18c-4,6-9,8-15,11c-5,2-10,3-16,2c-3,0-5-1-8-2C16,74,7,49,19,30  c3-4,6-9,11-12c8-5,17-7,27-6c8,1,15,4,21,9c19,16,19,46,1,63c-4,3-7,6-12,8c-12,5-25,5-37,0c25,11,58-4,62-33c1-9,0-17-4-25  c-2-4-5-7-8-11s-8-5-12-8c-3-2-7-2-11-3c-15-2-29,4-37,17c-7,12-8,26-1,38c3,3,5,6,8,9c4,4,9,5,13,7c5,1,10,1,15,0c7-1,12-4,17-9  c7-7,10-17,8-27c-1-3-2-6-3-9c-9-16-32-20-45-5c-4,6-6,13-5,20c2,12,13,19,24,18c9-1,18-9,17-19c1,10-9,18-18,19c-8,1-15-3-19-9  c-3-5-5-10-4-16c1-5,3-9,6-13c4-3,8-8,14-8c7-1,13,0,19,3c15,9,18,31,6,44c-3,4-8,7-12,9c-5,2-10,2-15,2c-3,0-5-1-8-2  C16,73,8,45,23,27C38,7,68,8,83,28c3,4,5,8,7,13c4,17-1,34-15,45c-17,12-40,12-55.196-2.222  C13.316,77.725,11.13,74.758,11.13,74.758z"/><text x="0" y="115" fill="#000000" font-size="5px" font-weight="bold" font-family="'Helvetica Neue', Helvetica, Arial-Unicode, Arial, Sans-serif">Created by Eliricon</text><text x="0" y="120" fill="#000000" font-size="5px" font-weight="bold" font-family="'Helvetica Neue', Helvetica, Arial-Unicode, Arial, Sans-serif">from the Noun Project</text></svg>