<svg xmlns="http://www.w3.org/2000/svg" xmlns:xlink="http://www.w3.org/1999/xlink" version="1.1" x="0px" y="0px" viewBox="0 0 100 125" enable-background="new 0 0 100 100" xml:space="preserve"><g><path d="M52.1,94.7c-1.3,0-2.4-0.8-2.9-2.1C49,92,48.4,90.9,48,90.2c-1.9-2.3-17.9-22-6.9-35.6c5.8-7.2,10.7-9.3,14.7-11   c3.2-1.4,5.5-2.4,7.7-5.7c2.2-3.4,2.2-6.3,2.1-9.9c-0.1-4.3-0.2-9.3,3.8-15.2c0.9-1.4,2.8-1.7,4.2-0.8c1.4,0.9,1.7,2.8,0.8,4.2   c-3,4.3-2.9,7.7-2.8,11.7c0.1,3.9,0.2,8.4-3.1,13.4c-3.2,4.8-6.8,6.4-10.3,7.9c-3.7,1.6-7.6,3.3-12.4,9.3   c-8.3,10.3,6.8,27.9,6.9,28.1c0.1,0.1,0.2,0.2,0.3,0.4c0.1,0.2,1.4,2.2,2,4c0.5,1.6-0.4,3.3-1.9,3.8C52.7,94.7,52.4,94.7,52.1,94.7   z"/></g><g><path d="M69.9,35c-0.6,0-1.2,0-1.8-0.1c-1.6-0.2-2.8-1.7-2.6-3.3c0.2-1.6,1.7-2.8,3.3-2.6c2.9,0.3,5.2-0.7,7.1-3.2   c1.5-2,2.2-4.1,2.2-4.2c0.4-1.6,2.1-2.5,3.7-2.1c1.6,0.4,2.5,2.1,2.1,3.7C82.7,27.5,78.3,35,69.9,35z"/></g><g><path d="M68.5,28.1c-2.5,0-4.8-1-6.6-2.8c-4.8-5-4.6-15.4-4.5-16.5c0.1-1.7,1.5-2.9,3.1-2.9C62.2,6,63.5,7.4,63.4,9l0,0   c-0.1,3.4,0.5,9.7,2.9,12.1c0.6,0.7,1.3,1,2.2,1c1.7,0,3,1.3,3,3C71.5,26.8,70.2,28.1,68.5,28.1z"/></g><g><path d="M41.6,62.4c-0.4,0-0.8-0.1-1.1-0.2c-1.5-0.6-2.3-2.4-1.7-3.9c0-0.1,2.6-6.7-0.3-11.3c-1.8-2.8-5.4-4.5-10.8-4.9   c-9.6-0.8-15.7-8.9-16-9.2c-1-1.3-0.7-3.2,0.6-4.2c1.3-1,3.2-0.7,4.2,0.6c0,0.1,4.7,6.3,11.6,6.8c7.4,0.6,12.6,3.2,15.4,7.8   c4.4,7.2,0.9,16.3,0.7,16.6C43.9,61.7,42.8,62.4,41.6,62.4z"/></g><g><path d="M26.4,41.9c-0.2,0-0.4,0-0.7-0.1c-1.6-0.4-2.6-2-2.3-3.6c2.5-11-3.3-15.5-3.4-15.5c-1.3-1-1.6-2.9-0.6-4.2   c1-1.3,2.9-1.6,4.2-0.6c0.4,0.3,9.1,6.9,5.7,21.7C29,41,27.7,41.9,26.4,41.9z"/></g><g><path d="M44.8,83.2c-0.3,0-0.7-0.1-1-0.2c-13.1-4.7-19.5-1.2-19.5-1.2l0,0L24,82c-1.3,0.7-2.8,0.3-3.7-0.8h0   c-0.8-1.1-0.8-2.7,0.1-3.7l0.7-0.8c2.3-1,8.5-5.2,24.6,0.6c1.4,0.5,2.4,2,2,3.5C47.4,82.3,46.1,83.2,44.8,83.2z"/></g><g><path d="M13.5,56.9c-2.2,0-3.7-0.1-3.8-0.1c-1.7-0.1-2.9-1.6-2.7-3.2c0.1-1.7,1.6-2.9,3.2-2.7c6,0.5,22.2-0.1,25.2-8.2   c0.6-1.6,2.3-2.3,3.9-1.7c1.6,0.6,2.3,2.3,1.7,3.9c-2.3,6-8.6,10-18.2,11.5C19.3,56.8,16,56.9,13.5,56.9z"/></g><g><path d="M23.7,72.9c-0.3,0-0.6,0-0.9,0c-1.7-0.1-2.9-1.6-2.8-3.2c0.1-1.7,1.6-2.9,3.2-2.8c2.5,0.2,4.1-1.5,4.1-1.5   c0.2-0.3,0.5-0.5,0.8-0.6c4.9-4.4,10-3.1,13.5-1.3c1.5,0.8,2,2.6,1.2,4.1c-0.8,1.5-2.6,2-4.1,1.2c-3.9-2.1-5.8-0.3-6.7,0.5   c-0.2,0.2-0.3,0.3-0.5,0.4C30.2,71,27.4,72.9,23.7,72.9z"/></g><g><path d="M53.9,78.4c-0.6,0-1.3-0.2-1.8-0.6c-0.3-0.2-6.4-5-3.4-16.5c0.4-1.6,2.1-2.6,3.7-2.2c1.6,0.4,2.6,2.1,2.2,3.7   c-1.9,7.4,1.2,10.2,1.2,10.2c1.3,1,1.6,2.9,0.6,4.2C55.7,78,54.8,78.4,53.9,78.4z"/></g><g><path d="M46.2,85.6c-0.4,0-0.8-0.1-1.1-0.2c-1.5-0.6-2.3-2.4-1.7-3.9c4.1-10.2,12.9-10,20.7-9.8c6.1,0.2,12.3,0.3,17.9-3.5   c1.4-0.9,3.2-0.6,4.2,0.8c0.9,1.4,0.6,3.2-0.8,4.2c-7.1,4.8-14.7,4.7-21.4,4.5c-8.2-0.2-12.6,0-15,6C48.5,84.9,47.4,85.6,46.2,85.6   z"/></g><g><path d="M67.7,77.8c-0.5,0-0.9-0.1-1.4-0.3c-1.5-0.8-2.1-2.6-1.3-4l0,0c0-0.1,3.4-6.7,1.7-12.3c-0.5-1.6,0.4-3.3,2-3.7   c1.6-0.5,3.3,0.4,3.7,2c2.3,7.9-2,16.4-2.1,16.8C69.9,77.2,68.8,77.8,67.7,77.8z"/></g><g><path d="M67.8,55c-8.1,0-15.6-4-16-4.3c-1.5-0.8-2-2.6-1.2-4.1c0.8-1.5,2.6-2,4.1-1.2c0.2,0.1,13.2,7.1,20.6,1.2   c9.5-7.5,15.3-4,16-3.6l0.8,0.6c1.1,0.9,1.3,2.4,0.6,3.6v0c-0.6,1-1.9,1.5-3,1.2L88,48.1c0,0,0,0,0.1,0.1c0,0-3.1-1.5-9.1,3.2   C75.6,54.1,71.7,55,67.8,55z"/></g><g><path d="M87.5,57.7c-3.3,0-8.5-1.1-12.7-6.8c-1-1.3-0.7-3.2,0.7-4.2c1.3-1,3.2-0.7,4.2,0.7c4.2,5.7,9.5,4.2,9.6,4.2   c1.6-0.5,3.3,0.4,3.7,2c0.5,1.6-0.4,3.3-2,3.7C90.8,57.3,89.4,57.7,87.5,57.7z"/></g><g><path d="M72.5,69.4c-1,0-2.1-0.1-3.2-0.5c-1.6-0.5-2.5-2.1-2-3.7c0.5-1.6,2.1-2.5,3.7-2c3.8,1.1,7.8-2.3,9.5-3.7   c0.1-0.1,0.3-0.2,0.4-0.3c1.3-1,3.2-0.9,4.2,0.4c1,1.3,0.9,3.2-0.4,4.2c-0.1,0.1-0.2,0.2-0.3,0.3C82.5,65.6,78,69.4,72.5,69.4z"/></g><g><path d="M69,86.9c-8.7,0-11.4-7.9-11.6-12.1c-0.1-1.7,1.2-3.1,2.9-3.1c1.7-0.1,3.1,1.2,3.1,2.8c0,0.1,0.1,1.9,1,3.6   c1,1.9,2.4,2.8,4.6,2.8c1.7,0,3,1.3,3,3C72,85.6,70.6,86.9,69,86.9z"/></g><g><path d="M39.7,44l-4.3-4.2l0,0c0.1-0.1,2.8-3.2,1.4-8.8c-0.2-0.9-0.5-1.7-0.8-2.6C34.6,24,33,19,36.2,9C36.7,7.4,38.4,6.5,40,7   c1.6,0.5,2.5,2.2,1.9,3.8c-2.6,8.2-1.5,11.7-0.3,15.8c0.3,0.9,0.6,1.9,0.8,2.9C44.8,38.5,39.9,43.7,39.7,44z"/></g><g><path d="M50.4,52.8c-0.4,0-0.8-0.1-1.1-0.2c-1.5-0.6-2.3-2.4-1.7-3.9c0.1-0.2,4.3-11.2-2.2-20.6c-0.9-1.4-0.6-3.2,0.8-4.2   c1.4-0.9,3.2-0.6,4.2,0.8c8.4,12.2,3.1,25.7,2.9,26.3C52.7,52.1,51.6,52.8,50.4,52.8z"/></g><g><path d="M37.5,24.6c-1,0-2-0.5-2.6-1.5c-0.9-1.4-0.4-3.3,1-4.1C43.6,14.4,46,7.4,46.1,7.3c0.5-1.6,2.2-2.4,3.8-1.9   c1.6,0.5,2.4,2.2,1.9,3.8c-0.1,0.4-3.2,9.2-12.7,14.9C38.6,24.4,38,24.6,37.5,24.6z"/></g><g><path d="M52.5,39.3C52.5,39.3,52.4,39.3,52.5,39.3c-1.7,0-3.1-1.4-3-3c0-1.7,1.4-3,3-3c0.7-0.2,2.1-2.5,2.7-4.5   c0.5-1.6,2.1-2.5,3.7-2c1.6,0.5,2.5,2.1,2,3.7C60.5,31.9,58,39.3,52.5,39.3z"/></g><g><path d="M32.8,89.3c-0.7,0-1.3-0.2-1.9-0.6c-1.3-1-1.5-2.9-0.5-4.2c0.9-1.1,1.3-3.1,1.7-4.7c0.3-1.5,0.6-2.7,1.3-3.6   c0.9-1.4,2.8-1.7,4.2-0.8c1.3,0.9,1.7,2.7,0.8,4.1c-0.1,0.3-0.3,1.1-0.4,1.7c-0.5,2.1-1.1,4.9-2.8,7.1   C34.5,88.9,33.7,89.3,32.8,89.3z"/></g><g><path d="M23.1,56c-1.4,0-2.7-1-2.9-2.4c0-0.1-0.4-1.9-1.7-3.4c-1.7-1.9-4.2-2.6-7.5-2c-1.6,0.3-3.2-0.8-3.5-2.5   c-0.3-1.6,0.8-3.2,2.5-3.5c7.1-1.2,11.1,1.6,13.3,4.2c2.3,2.7,2.9,5.6,2.9,5.9c0.3,1.6-0.8,3.2-2.4,3.5C23.5,56,23.3,56,23.1,56z"/></g><g><path d="M36.2,23.9c-1.5,0-2.9-0.3-4.2-1c-4.5-2.3-6.1-7.5-6.2-8c-0.5-1.6,0.5-3.3,2.1-3.7c1.6-0.5,3.2,0.5,3.7,2   c0.3,0.9,1.4,3.5,3.2,4.4c0.9,0.5,2,0.5,3.4,0c1.6-0.6,3.3,0.2,3.9,1.8c0.6,1.6-0.2,3.3-1.8,3.9C38.8,23.6,37.5,23.9,36.2,23.9z"/></g><g><path d="M67,44.3c-0.8,0-1.6,0-2.4-0.1c-1.7-0.1-2.9-1.5-2.9-3.1c0.1-1.7,1.5-2.9,3.1-2.9c16.3,0.7,20-6.2,20-6.3   c0.7-1.5,2.5-2.1,4-1.4c1.5,0.7,2.1,2.5,1.4,4C90.1,35,85.4,44.3,67,44.3z"/></g><g><path d="M56.6,21.5c-1,0-2-0.2-3.1-0.4l-0.1,0c-1.6-0.3-2.7-1.9-2.3-3.6c0.3-1.6,1.9-2.7,3.6-2.3l0.1,0c1.9,0.4,2.3,0.5,4.5-0.5   c1.5-0.7,3.3,0,4,1.5c0.7,1.5,0,3.3-1.5,4C59.5,21.1,58,21.5,56.6,21.5z"/></g><g><path d="M13,68.4c-1,0-2-0.5-2.5-1.4c-0.9-1.4-0.5-3.2,0.9-4.1c0.6-0.4,14.6-9.2,23.5-0.7c1.2,1.1,1.2,3,0.1,4.2   c-1.1,1.2-3,1.2-4.2,0.1c-5.5-5.3-16,1.3-16.1,1.4C14.1,68.2,13.5,68.4,13,68.4z"/></g><g><path d="M51.6,71.4c-1.7,0-3-1.3-3-3c0-1.7,1.3-3,3-3c1.7,0,2.9-0.4,3.7-1.2c1.3-1.4,1.2-3.6,1.2-3.6c-0.1-1.7,1.1-3.1,2.8-3.2   c1.7-0.1,3.1,1.1,3.2,2.8c0,0.5,0.3,4.9-2.7,8.2C58.4,69.6,55.9,71.4,51.6,71.4z"/></g><g><path d="M34.3,58.9c-0.4,0-0.7-0.1-1.1-0.2c-1.5-0.6-2.2-2.2-1.8-3.7c0-0.2,0.1-1.4-1.2-3.6c-0.9-1.4-0.4-3.3,1-4.1   c1.4-0.9,3.3-0.4,4.1,1c3,4.9,2,8.1,1.8,8.7C36.6,58.1,35.5,58.9,34.3,58.9z"/></g><text x="0" y="115" fill="#000000" font-size="5px" font-weight="bold" font-family="'Helvetica Neue', Helvetica, Arial-Unicode, Arial, Sans-serif">Created by HeadsOfBirds</text><text x="0" y="120" fill="#000000" font-size="5px" font-weight="bold" font-family="'Helvetica Neue', Helvetica, Arial-Unicode, Arial, Sans-serif">from the Noun Project</text></svg>