<?xml version="1.0" encoding="utf-8"?>
<!-- Generator: Adobe Illustrator 20.1.0, SVG Export Plug-In . SVG Version: 6.00 Build 0)  -->
<svg version="1.1" id="Layer_1" xmlns="http://www.w3.org/2000/svg" xmlns:xlink="http://www.w3.org/1999/xlink" x="0px" y="0px"
	 viewBox="0 0 619.5 807.5" style="enable-background:new 0 0 619.5 807.5;" xml:space="preserve">
<style type="text/css">
	.st0{fill:#010101;}
</style>
<g>
	<path class="st0" d="M331.3,114.5l1,25l71,4c4-7,12-12,21-12c32,0,32,48,0,48c-9,0-17-4-21-12l-69,4l22,460c78-10,156-51,161-136
		l-52,17c-6,2-11-7-5-11l74-55c2-2,5-2,7,0l76,55c5,4,1,12-6,10l-50-16c-5,213-182,185-246,309c-3,4-9,4-11,0
		c-68-131-242-95-247-307l-50,15c-6,1-10-7-5-11l74-55c3-2,5-2,8,0l75,55c5,4,1,12-5,10l-60-15c6,84,93,125,168,135l23-460l-69-4
		c-4,8-12,12-21,12c-32,0-32-48,0-48c9,0,17,5,21,12l71-4l1-25c-23-9-38-31-38-56c0-78,119-78,119,0
		C369.3,83.5,354.3,105.5,331.3,114.5z M309.3,41.5c-9,0-17,8-17,17c0,10,8,17,17,17c10,0,17-7,17-17
		C326.3,49.5,319.3,41.5,309.3,41.5z"/>
</g>
</svg>
