<?xml version="1.0" encoding="utf-8"?>
<!-- Generator: Adobe Illustrator 20.1.0, SVG Export Plug-In . SVG Version: 6.00 Build 0)  -->
<svg version="1.1" id="Layer_1" xmlns="http://www.w3.org/2000/svg" xmlns:xlink="http://www.w3.org/1999/xlink" x="0px" y="0px"
	 viewBox="0 0 529.3 529.2" style="enable-background:new 0 0 529.3 529.2;" xml:space="preserve">
<style type="text/css">
	.st0{fill:#949BAD;}
</style>
<title>icon-01</title>
<path class="st0" d="M480.7,8.3L264.7,224.4L48.6,8.3C37.5-2.8,19.5-2.8,8.3,8.3c-11.1,11.1-11.1,29.1,0,40.3l216.1,216.1L8.3,480.6
	c-11.1,11.1-11.1,29.1,0,40.3c11.1,11.1,29.1,11.1,40.3,0l216.1-216.1l216.1,216.1c11.1,11.1,29.1,11.1,40.3,0
	c11.1-11.1,11.1-29.1,0-40.3L304.9,264.7L521,48.6c11.1-11.1,11.1-29.1,0-40.3C509.9-2.8,491.9-2.8,480.7,8.3L480.7,8.3z"/>
</svg>
