<?xml version="1.0" encoding="utf-8"?>
<!-- Generator: Adobe Illustrator 20.1.0, SVG Export Plug-In . SVG Version: 6.00 Build 0)  -->
<svg version="1.1" id="Layer_1" xmlns="http://www.w3.org/2000/svg" xmlns:xlink="http://www.w3.org/1999/xlink" x="0px" y="0px"
	 viewBox="0 0 32 32" style="enable-background:new 0 0 32 32;" xml:space="preserve">
<style type="text/css">
	.st0{display:none;}
	.st1{display:inline;}
	.st2{fill:#FFFFFF;}
</style>
<g class="st0">
	<path class="st1" d="M18,0h-4c-2.2,0-4,1.8-4,4v6c0,2.2,1.8,4,4,4v16c0,1.1,0.9,2,2,2s2-0.9,2-2V14c2.2,0,4-1.8,4-4V4
		C22,1.8,20.2,0,18,0z"/>
</g>
<g class="st0">
	<path class="st1" d="M25,5h-6c-1.1,0-2,0.9-2,2v6c0,1.1,0.9,2,2,2h6c1.1,0,2-0.9,2-2V7C27,5.9,26.1,5,25,5z M24,11h-4
		c-0.6,0-1-0.4-1-1s0.4-1,1-1h4c0.6,0,1,0.4,1,1S24.6,11,24,11z M25,17h-6c-1.1,0-2,0.9-2,2v6c0,1.1,0.9,2,2,2h6c1.1,0,2-0.9,2-2v-6
		C27,17.9,26.1,17,25,17z M24,25h-4c-0.6,0-1-0.4-1-1s0.4-1,1-1h4c0.6,0,1,0.4,1,1S24.6,25,24,25z M24,21h-4c-0.6,0-1-0.4-1-1
		s0.4-1,1-1h4c0.6,0,1,0.4,1,1S24.6,21,24,21z M13,17H7c-1.1,0-2,0.9-2,2v6c0,1.1,0.9,2,2,2h6c1.1,0,2-0.9,2-2v-6
		C15,17.9,14.1,17,13,17z M12.1,22.7c0.4,0.4,0.4,1,0,1.4c-0.4,0.4-1,0.4-1.4,0L10,23.4l-0.7,0.7c-0.4,0.4-1,0.4-1.4,0
		c-0.4-0.4-0.4-1,0-1.4L8.6,22l-0.7-0.7c-0.4-0.4-0.4-1,0-1.4c0.4-0.4,1-0.4,1.4,0l0.7,0.7l0.7-0.7c0.4-0.4,1-0.4,1.4,0
		c0.4,0.4,0.4,1,0,1.4L11.4,22L12.1,22.7z M13,5H7C5.9,5,5,5.9,5,7v6c0,1.1,0.9,2,2,2h6c1.1,0,2-0.9,2-2V7C15,5.9,14.1,5,13,5z
		 M12,11h-1v1c0,0.6-0.4,1-1,1c-0.6,0-1-0.4-1-1v-1H8c-0.6,0-1-0.4-1-1s0.4-1,1-1h1V8c0-0.6,0.4-1,1-1c0.6,0,1,0.4,1,1v1h1
		c0.6,0,1,0.4,1,1S12.6,11,12,11z M27,1H5C2.8,1,1,2.8,1,5v22c0,2.2,1.8,4,4,4h22c2.2,0,4-1.8,4-4V5C31,2.8,29.2,1,27,1z M29,27
		c0,1.1-0.9,2-2,2H5c-1.1,0-2-0.9-2-2V5c0-1.1,0.9-2,2-2h22c1.1,0,2,0.9,2,2V27z"/>
</g>
<g class="st0">
	<path class="st1" d="M28,28H4v-8H2v12h28V20h-2V28z M24,14c0,2.2,1.8,4,4,4s4-1.8,4-4H24z M30,0H2L0.3,12h31.4L30,0z M4,18
		c2.2,0,4-1.8,4-4H0C0,16.2,1.8,18,4,18z M12,18c2.2,0,4-1.8,4-4H8C8,16.2,9.8,18,12,18z M20,18c2.2,0,4-1.8,4-4h-8
		C16,16.2,17.8,18,20,18z"/>
</g>
<g>
	<path class="st2" d="M10,22l8-4l4-8l-8,4L10,22z M16,14c1.1,0,2,0.9,2,2s-0.9,2-2,2s-2-0.9-2-2S14.9,14,16,14z M16,0
		C7.2,0,0,7.2,0,16s7.2,16,16,16s16-7.2,16-16S24.8,0,16,0z M16,28C9.4,28,4,22.6,4,16S9.4,4,16,4c6.6,0,12,5.4,12,12S22.6,28,16,28
		z"/>
</g>
</svg>
