<svg xmlns="http://www.w3.org/2000/svg" xmlns:xlink="http://www.w3.org/1999/xlink" version="1.1" x="0px" y="0px" viewBox="0 0 20 25" enable-background="new 0 0 20 20" xml:space="preserve"><g><rect x="5" y="9" width="2" height="2"/><rect x="9" y="9" width="2" height="2"/><rect x="13" y="9" width="2" height="2"/><rect x="5" y="13" width="2" height="2"/><rect x="9" y="13" width="2" height="2"/><rect x="13" y="13" width="2" height="2"/><path d="M19,2h-2V1c0-0.6-0.4-1-1-1c-0.6,0-1,0.4-1,1v1H5V1c0-0.6-0.4-1-1-1C3.4,0,3,0.4,3,1v1H1C0.4,2,0,2.4,0,3v16   c0,0.6,0.4,1,1,1h18c0.5,0,1-0.4,1-1V3C20,2.4,19.5,2,19,2z M18,18H2V6h16V18z"/></g><text x="0" y="35" fill="#000000" font-size="5px" font-weight="bold" font-family="'Helvetica Neue', Helvetica, Arial-Unicode, Arial, Sans-serif">Created by ProSymbols</text><text x="0" y="40" fill="#000000" font-size="5px" font-weight="bold" font-family="'Helvetica Neue', Helvetica, Arial-Unicode, Arial, Sans-serif">from the Noun Project</text></svg>