<?xml version="1.0" encoding="utf-8"?>
<!-- Generator: Adobe Illustrator 20.1.0, SVG Export Plug-In . SVG Version: 6.00 Build 0)  -->
<svg version="1.1" id="Layer_1" xmlns="http://www.w3.org/2000/svg" xmlns:xlink="http://www.w3.org/1999/xlink" x="0px" y="0px"
	 viewBox="0 0 25.7 62" style="enable-background:new 0 0 25.7 62;" xml:space="preserve">
<g>
	<path d="M16.8,45.3c11.7-9.2,11.9-19.3,0-28.7l-4-2.8C9.8,11.7,4.6,7,4.6,2.3C4.6,1,3.6,0,2.3,0S0,1,0,2.3c0,6.3,5.4,11.6,8.9,14.3
		l4,2.8c10.5,7.5,10,13.8,3.7,20c-1.4,1.4-2.8,2.4-3.7,3.1l-4,2.8C5.4,48.1,0,53.3,0,59.7C0,61,1,62,2.3,62s2.3-1,2.3-2.3
		c0-4.5,4.6-8.9,8.2-11.6L16.8,45.3z"/>
	<path d="M24.3,8c0.9-1.8,1.4-3.7,1.4-5.7c0-1.3-1-2.3-2.3-2.3C22.1,0,21,1,21,2.3c0,0.9-0.2,1.7-0.5,2.6h-7.7H7.7
		c0.8,1.6,2.1,3.2,3.6,4.6h1.5h4.9c-0.9,1-1.9,2-2.9,2.8l3.5,2.4c0.1,0.1,0.2,0.2,0.4,0.3c1.9-1.7,3.9-3.9,5.3-6.5
		C24.1,8.4,24.2,8.2,24.3,8z"/>
	<path d="M5,28.4h13c-0.6-1.5-1.9-3-3.6-4.6H7.8c0.8-0.9,1.8-1.9,3-2.8l-3.5-2.4c-0.1-0.1-0.3-0.2-0.4-0.3c-9.4,8.4-9.2,17.3,0,25.5
		c0.1-0.1,0.3-0.2,0.4-0.3l0.1-0.1l3.4-2.4c-0.6-0.5-1.1-1-1.7-1.6C8.7,39,8.3,38.6,8,38.2h6.4c0.2-0.2,0.3-0.3,0.5-0.5
		c1.5-1.5,2.5-2.8,3.1-4.1H5.1C4.5,31.9,4.5,30.2,5,28.4z"/>
	<path d="M24.3,54c-0.1-0.2-0.2-0.4-0.3-0.5c-1.4-2.6-3.4-4.8-5.3-6.5c-0.1,0.1-0.2,0.2-0.4,0.3l-0.1,0.1l-3.4,2.4
		c1,0.8,2,1.8,2.9,2.8h-6.4c-1.5,1.4-2.9,3-3.6,4.6h12.9c0.3,0.8,0.5,1.7,0.5,2.6c0,1.3,1,2.3,2.3,2.3c1.3,0,2.3-1,2.3-2.3
		C25.7,57.7,25.1,55.8,24.3,54z"/>
</g>
</svg>
