<?xml version="1.0" encoding="utf-8"?>
<!-- Generator: Adobe Illustrator 20.1.0, SVG Export Plug-In . SVG Version: 6.00 Build 0)  -->
<svg version="1.1" id="Layer_1" xmlns="http://www.w3.org/2000/svg" xmlns:xlink="http://www.w3.org/1999/xlink" x="0px" y="0px"
	 viewBox="0 0 37.8 57.2" style="enable-background:new 0 0 37.8 57.2;" xml:space="preserve">
<path d="M12,0.3l-2.1,1C8.6,2,7.1,2,5.8,1.3l-2.1-1C2.5-0.4,0.9,0.2,0.3,1.4C0.1,1.9,0,2.3,0,2.8l2.7,32.5c0,0.3,0.1,0.7,0.2,1.2
	v15.7c0,2.8,2.2,5,5,5s5-2.2,5-5V36.5c0.1-0.5,0.1-0.9,0.2-1.2l2.7-32.5c0.1-1.4-0.9-2.7-2.4-2.8C12.9,0,12.4,0.1,12,0.3z M1.9,4.3
	l2-0.2l2.9,27.2c-0.7,0.2-1.3,0.5-1.9,0.9l0,0L1.9,4.3z M10.9,47.6c-1.5-1.7-4.1-1.8-5.7-0.3c-0.1,0.1-0.2,0.2-0.3,0.3v-2.5
	c1.9-1.1,4.1-1.1,6,0V47.6z M10.9,32.3L10.9,32.3c-0.6-0.4-1.2-0.7-1.9-0.9l2.9-27.2l2,0.2L10.9,32.3z"/>
<path d="M37,0.8c-0.8-0.8-2-1-3-0.5l-2.1,1c-1.3,0.6-2.8,0.6-4.1,0l-2.1-1c-1.3-0.6-2.8-0.1-3.5,1.2C22.1,1.9,22,2.3,22,2.8
	l2.7,32.5c0,0.3,0.1,0.7,0.2,1.2v15.7c0,2.8,2.2,5,5,5s5-2.2,5-5V36.5c0.1-0.5,0.1-0.9,0.2-1.2l2.7-32.5C37.8,2,37.5,1.3,37,0.8z
	 M23.9,4.3l2-0.2l2.9,27.2c-0.7,0.2-1.3,0.5-1.9,0.9l0,0L23.9,4.3z M32.9,47.6c-1.5-1.7-4.1-1.8-5.7-0.3c-0.1,0.1-0.2,0.2-0.3,0.3
	v-2.5c1.9-1.1,4.1-1.1,6,0V47.6z M32.9,32.3L32.9,32.3c-0.6-0.4-1.2-0.7-1.9-0.9l2.9-27.2l2,0.2L32.9,32.3z"/>
</svg>
