<svg width="7" height="12" viewBox="0 0 7 12" fill="none" xmlns="http://www.w3.org/2000/svg">
<path d="M4.29905 0.103044C3.94906 -0.00365494 3.36158 -0.0303297 2.99909 0.0363572C0.824171 0.463154 -0.600778 2.82387 0.249191 4.95786C1.21166 7.35859 2.42411 9.65262 3.49907 12C4.57404 9.65262 5.78649 7.37192 6.74896 4.97119C7.56143 2.93057 6.31147 0.703227 4.29905 0.103044ZM3.49907 5.89147C2.44911 5.89147 1.59914 4.97119 1.59914 3.83751C1.59914 2.70384 2.44911 1.79689 3.49907 1.79689C4.54904 1.79689 5.39901 2.71717 5.39901 3.85085C5.39901 4.98453 4.54904 5.89147 3.49907 5.89147Z" fill="#424753"/>
</svg>
