<?xml version="1.0" encoding="utf-8"?>
<!-- Generator: Adobe Illustrator 20.1.0, SVG Export Plug-In . SVG Version: 6.00 Build 0)  -->
<svg version="1.1" id="Layer_1" xmlns="http://www.w3.org/2000/svg" xmlns:xlink="http://www.w3.org/1999/xlink" x="0px" y="0px"
	 viewBox="0 0 89.1 100" style="enable-background:new 0 0 89.1 100;" xml:space="preserve">
<path d="M79,0H7.3v14.7h-4C1.5,14.7,0,16.2,0,18c0,1.7,1.5,3.1,3.3,3.1h4v9.6h-4c-1.8,0-3.3,1.5-3.3,3.1c0,1.8,1.5,3.3,3.3,3.3h4
	v9.6h-4c-1.8,0-3.3,1.3-3.3,3.1s1.5,3.3,3.3,3.3h4v9.4h-4C1.5,62.6,0,64.1,0,66s1.5,3.3,3.3,3.3h4v9.4h-4C1.5,78.7,0,80.2,0,82
	c0,1.8,1.5,3.3,3.3,3.3h4V100H79c5.6,0,10.1-4.5,10.1-10.1V10.1C89.1,4.5,84.6,0,79,0z M12.9,87.8c-2,0-3.6-1-4.8-2.5h4.8
	c1.8,0,3.3-1.5,3.3-3.3s-1.5-3.3-3.3-3.3H8.3c1-1.3,2.6-2.3,4.6-2.3c3.1,0,5.8,2.5,5.8,5.8C18.7,85.3,16,87.8,12.9,87.8z M12.9,71.7
	c-2,0-3.6-1-4.8-2.5h4.8c1.8,0,3.3-1.5,3.3-3.3s-1.5-3.3-3.3-3.3H8.3c1-1.3,2.6-2.3,4.6-2.3c3.1,0,5.8,2.5,5.8,5.8
	C18.7,69.3,16,71.7,12.9,71.7z M12.9,55.7c-2,0-3.6-1-4.8-2.5h4.8c1.8,0,3.3-1.5,3.3-3.3c0-1.8-1.5-3.1-3.3-3.1H8.3
	c1-1.5,2.6-2.5,4.6-2.5c3.1,0,5.8,2.5,5.8,5.8C18.7,53.2,16,55.7,12.9,55.7z M12.9,39.7c-2,0-3.6-1-4.8-2.5h4.8
	c1.8,0,3.3-1.5,3.3-3.3s-1.5-3.1-3.3-3.1H8.3c1-1.5,2.6-2.5,4.6-2.5c3.1,0,5.8,2.5,5.8,5.8C18.7,37.2,16,39.7,12.9,39.7z M12.9,23.6
	c-2,0-3.6-1-4.6-2.5h4.6c1.8,0,3.3-1.5,3.3-3.1c0-1.8-1.5-3.3-3.3-3.3H8.3c1-1.5,2.6-2.5,4.6-2.5c3.1,0,5.8,2.5,5.8,5.8
	C18.7,21.2,16,23.6,12.9,23.6z"/>
</svg>
