<?xml version="1.0" encoding="utf-8"?>
<!-- Generator: Adobe Illustrator 20.1.0, SVG Export Plug-In . SVG Version: 6.00 Build 0)  -->
<svg version="1.1" id="Layer_1" xmlns="http://www.w3.org/2000/svg" xmlns:xlink="http://www.w3.org/1999/xlink" x="0px" y="0px"
	 viewBox="0 0 63.9 64.4" style="enable-background:new 0 0 63.9 64.4;" xml:space="preserve">
<path d="M13.9,38.2c5.2,0,9.8-2.9,12.2-7.3c2.4,4.5,7,7.3,12.2,7.3C45.9,38.2,52,32,52,24.4s-6.2-13.8-13.8-13.8H13.9
	C6.2,10.6,0,16.8,0,24.4S6.2,38.2,13.9,38.2z"/>
<path d="M61,50.4V6.9h0.3c1.4,0,2.6-1.2,2.6-2.6V2.6c0-1.4-1.2-2.6-2.6-2.6H54c-1.4,0-2.6,1.2-2.6,2.6v1.7c0,1.4,1.2,2.6,2.6,2.6h1
	v43.5c0,4.4-3.6,8-8,8h-8c-4.1,0-7.4-3-7.9-6.9h0.3c1.4,0,2.6-1.2,2.6-2.6v-1.7c0-1.4-1.2-2.6-2.6-2.6h-7.3c-1.4,0-2.6,1.1-2.6,2.6
	v1.7c0,1.4,1.2,2.6,2.6,2.6H25c0.5,7.2,6.6,12.9,13.9,12.9h8C54.8,64.4,61,58.1,61,50.4z"/>
</svg>
