<?xml version="1.0" encoding="utf-8"?>
<!-- Generator: Adobe Illustrator 20.1.0, SVG Export Plug-In . SVG Version: 6.00 Build 0)  -->
<svg version="1.1" id="Layer_1" xmlns="http://www.w3.org/2000/svg" xmlns:xlink="http://www.w3.org/1999/xlink" x="0px" y="0px"
	 viewBox="0 0 80.4 57.4" style="enable-background:new 0 0 80.4 57.4;" xml:space="preserve">
<style type="text/css">
	.st0{fill:#FFFFFF;}
</style>
<path class="st0" d="M80,53.5L49.9,1.3C49.4,0.5,48.6,0,47.6,0c-0.9,0-1.8,0.5-2.3,1.3L29.4,28.9L24.3,20c-0.5-0.8-1.3-1.3-2.3-1.3
	c-0.9,0-1.8,0.5-2.3,1.3L0.4,53.5c-0.5,0.8-0.5,1.8,0,2.6c0.5,0.8,1.3,1.3,2.3,1.3h14.8h23.8h36.4c0.9,0,1.8-0.5,2.3-1.3
	S80.5,54.3,80,53.5z"/>
</svg>
