<?xml version="1.0" encoding="utf-8"?>
<!-- Generator: Adobe Illustrator 20.1.0, SVG Export Plug-In . SVG Version: 6.00 Build 0)  -->
<svg version="1.1" id="Layer_1" xmlns="http://www.w3.org/2000/svg" xmlns:xlink="http://www.w3.org/1999/xlink" x="0px" y="0px"
	 viewBox="0 0 90 82.2" style="enable-background:new 0 0 90 82.2;" xml:space="preserve">
<g>
	<path d="M82.2,11.2l-2,0.7c-1.2,0.4-1.6,2-0.8,3l1,1.2c0.9,1,2.5,0.8,3.1-0.3l1-1.9C85.3,12.4,83.8,10.6,82.2,11.2z"/>
	<path d="M27.2,61.2l-14,13.5c-1.2,1.2-1,3.2,0.5,4l5.5,3.1c1.4,0.8,3.2,0.1,3.7-1.5l5.4-18.6C28.5,61.1,27.7,60.6,27.2,61.2z"/>
	<path d="M21,54L2,58.1c-1.7,0.4-2.5,2.2-1.7,3.7l3.1,5.6c0.8,1.4,2.7,1.8,3.9,0.7l14.3-13C22.2,54.6,21.7,53.7,21,54z"/>
	<path d="M77.1,13.3c0,0-25,16.1-29.2,18.9l-3.8-5.6L22.7,51.9c-0.6,0.6,0.2,1.6,0.9,1.2l24.7-15.9l0.2,0.2L28.8,58.8
		c-0.5,0.6,0.2,1.6,1,1.1l42.9-24.1c-0.2,0.5-9.8,11.5-9.8,11.5c-0.3,0.8,0.7,1.4,1.2,0.7l19.2-18.5c1.5-2.6,1.3-6-0.8-8.4
		L77.1,13.3z"/>
	<path d="M75.8,12.2c2.3-1.7,2.9-4.4,1.7-6.5c-1.3-2.2-4.2-3.1-6.9-1.6L43,22.2l5.3,8L75.8,12.2z"/>
	<path d="M89.3,2.7L89.3,2.7c-1.3-2.5-4.8-3.6-7.7-1.9l-4,2.8c-0.2,0.1-0.2,0.4-0.1,0.6c0.2,0.2,0.4,0.5,0.5,0.8
		c0.1,0.3,0.4,0.4,0.7,0.2l3.8-2.6c1.8-1,4.2-0.7,5.2,1.2c0.9,1.7,0.3,3.8-1.3,5.2L84.9,10c-0.2,0.2-0.3,0.5-0.1,0.7
		c0.2,0.2,0.4,0.5,0.5,0.8c0.1,0.3,0.4,0.4,0.7,0.2l1.5-1.1C90,8.8,90.5,5,89.3,2.7z"/>
</g>
</svg>
