<svg width="38" height="38" viewBox="0 0 38 38" fill="none" xmlns="http://www.w3.org/2000/svg">
<circle cx="19" cy="19" r="18.5" stroke="#1D222F"/>
<path fill-rule="evenodd" clip-rule="evenodd" d="M19.6599 10.0673L19.6905 10.8393L21.8681 10.9629C21.9908 10.7467 22.2362 10.5923 22.5122 10.5923C23.4936 10.5923 23.4936 12.0746 22.5122 12.0746C22.2362 12.0746 21.9908 11.9511 21.8681 11.704L19.7519 11.8276L20.4266 26.0335C22.8189 25.7246 25.2111 24.4585 25.3645 21.8335L23.7696 22.3585C23.5856 22.4202 23.4323 22.1423 23.6163 22.0188L25.8859 20.3202C25.9472 20.2585 26.0392 20.2585 26.1006 20.3202L28.4315 22.0188C28.5848 22.1423 28.4622 22.3893 28.2475 22.3276L26.714 21.8335C26.5606 28.4114 21.132 27.5467 19.1692 31.3761C19.0771 31.4996 18.8931 31.4996 18.8318 31.3761C16.7462 27.3305 11.4097 28.4423 11.2563 21.8952L9.72281 22.3585C9.53879 22.3893 9.41611 22.1423 9.56946 22.0188L11.839 20.3202C11.931 20.2585 11.9924 20.2585 12.0844 20.3202L14.3846 22.0188C14.538 22.1423 14.4153 22.3893 14.2313 22.3276L12.3911 21.8643C12.5751 24.4585 15.2434 25.7246 17.5436 26.0335L18.2491 11.8276L16.1328 11.704C16.0102 11.9511 15.7648 12.0746 15.4888 12.0746C14.5073 12.0746 14.5073 10.5923 15.4888 10.5923C15.7648 10.5923 16.0102 10.7467 16.1328 10.9629L18.3104 10.8393L18.3411 10.0673C17.6357 9.78934 17.1756 9.10993 17.1756 8.33787C17.1756 5.92904 20.8253 5.92904 20.8253 8.33787C20.8253 9.10993 20.3653 9.78934 19.6599 10.0673ZM18.9851 7.81287C18.7091 7.81287 18.4637 8.05993 18.4637 8.33787C18.4637 8.64669 18.7091 8.86287 18.9851 8.86287C19.2918 8.86287 19.5065 8.64669 19.5065 8.33787C19.5065 8.05993 19.2918 7.81287 18.9851 7.81287Z" fill="#1D222F"/>
</svg>
