<?xml version="1.0" encoding="utf-8"?>
<!-- Generator: Adobe Illustrator 20.1.0, SVG Export Plug-In . SVG Version: 6.00 Build 0)  -->
<svg version="1.1"
	 id="Layer_1" xmlns:cc="http://creativecommons.org/ns#" xmlns:dc="http://purl.org/dc/elements/1.1/" xmlns:rdf="http://www.w3.org/1999/02/22-rdf-syntax-ns#"
	 xmlns="http://www.w3.org/2000/svg" xmlns:xlink="http://www.w3.org/1999/xlink" x="0px" y="0px" viewBox="0 0 83.6 74.8"
	 style="enable-background:new 0 0 83.6 74.8;" xml:space="preserve">
<g transform="translate(0,-952.36218)">
	<path d="M11.2,952.4c-0.3,0-0.6,0-0.8,0.2c0,0,0,0,0,0c-0.6,0.4-0.7,1.5,0.1,2.5l10,13c0,0,0,0.1,0.1,0.1l3.9,5
		c0.4-0.6,0.9-1.1,1.6-1.5c0.1,0,0.2-0.1,0.2-0.1c0.1,0,0.2-0.1,0.2-0.1c0.1,0,0.1-0.1,0.1-0.1l-1.3-1.8c-0.1-0.1-0.1-0.2-0.2-0.2
		l-12.3-16C12.4,952.7,11.8,952.4,11.2,952.4L11.2,952.4z M70.8,952.4c-0.1,0-0.3,0-0.4,0.1c-0.3,0.1-0.6,0.3-0.8,0.5
		c-0.1,0.1-0.3,0.3-0.4,0.4l-12.4,16.2c-0.1,0.1-0.2,0.2-0.2,0.2l-1.2,1.6c0.3,0.1,0.5,0.3,0.8,0.4c0,0,0.1,0,0.1,0
		c0.1,0.1,0.2,0.2,0.4,0.3c0.4,0.3,0.7,0.7,1,1.1l3.8-4.9c0,0,0-0.1,0.1-0.1l10.1-13.1c0,0,0,0,0,0c0.1-0.1,0.2-0.2,0.2-0.3
		c0,0,0,0,0,0c0.1-0.1,0.1-0.2,0.1-0.3c0,0,0,0,0,0c0.3-0.7,0.1-1.4-0.3-1.7C71.3,952.4,71.1,952.4,70.8,952.4L70.8,952.4z M4,969.9
		c-1.2,0-2.2,0.4-2.9,0.9c-0.7,0.5-1.1,1.1-1.1,1.8v9.1c0,0.7,0.4,1.3,1.1,1.8c0.7,0.5,1.7,0.9,2.9,0.9h2.8c0,0,0.1,0,0.1,0
		c0.1,0,0.3,0,0.4,0h69c0.1,0,0.3,0,0.4,0h2.9c1.2,0,2.2-0.4,2.9-0.9c0.7-0.5,1.1-1.1,1.1-1.8v-9.1c0-0.7-0.4-1.3-1.1-1.8
		c-0.7-0.5-1.7-0.9-2.9-0.9H62.8l-4.6,6c-0.2,2.4-2.2,4.4-4.7,4.4c-2.6,0-4.6-2.1-4.6-4.7c0-2.3,1.7-4.2,3.8-4.6l0.9-1.2H28.5
		l0.9,1.2c2.1,0.5,3.7,2.3,3.7,4.5c0,2.6-2.1,4.7-4.7,4.7c-2.5,0-4.5-2-4.6-4.5l-4.6-5.9H4L4,969.9z M28.4,973.1
		c-0.2,0-0.3,0-0.5,0.1c-0.1,0-0.3,0.1-0.4,0.1c0,0-0.1,0-0.1,0c-0.3,0.1-0.5,0.3-0.7,0.5c0,0-0.1,0-0.1,0c0,0,0,0,0,0
		c0,0-0.1,0-0.1,0c-0.4,0.4-0.6,1-0.7,1.6c0,0.1,0,0.2,0,0.2c0,1.3,1.1,2.4,2.4,2.4c1.4,0,2.4-1.1,2.4-2.5c0-1.3-1-2.3-2.2-2.4
		C28.5,973.2,28.4,973.1,28.4,973.1L28.4,973.1z M53.5,973.1c-1.4,0-2.4,1.1-2.4,2.5c0,1.4,1.1,2.5,2.4,2.5c1.4,0,2.5-1.1,2.5-2.4
		c0,0,0,0,0-0.1c0,0,0,0,0-0.1c0-0.7-0.3-1.3-0.8-1.7c-0.3-0.3-0.7-0.6-1.2-0.7c0,0-0.1,0-0.1,0C53.8,973.2,53.7,973.2,53.5,973.1
		C53.6,973.1,53.5,973.2,53.5,973.1L53.5,973.1z M8.4,986.5l4.9,33.4c0.8,4.4,4.4,7.3,9.1,7.3h38.8c4.8,0,8.3-2.9,9.1-7.3l4.9-33.4
		L8.4,986.5L8.4,986.5z M25.8,993.8c1.4,0,2.6,1.1,2.6,2.6v21c0,1.4-1.1,2.6-2.6,2.6s-2.6-1.1-2.6-2.6v-21
		C23.2,994.9,24.4,993.8,25.8,993.8z M41.8,993.8c1.4,0,2.6,1.1,2.6,2.6v21c0,1.4-1.1,2.6-2.6,2.6s-2.6-1.1-2.6-2.6v-21
		C39.2,994.9,40.4,993.8,41.8,993.8z M57.8,993.8c1.4,0,2.6,1.1,2.6,2.6v21c0,1.4-1.1,2.6-2.6,2.6s-2.6-1.1-2.6-2.6v-21
		C55.2,994.9,56.4,993.8,57.8,993.8z"/>
</g>
</svg>
