<svg width="41" height="42" viewBox="0 0 41 42" fill="none" xmlns="http://www.w3.org/2000/svg">
<path d="M39.9998 19.6492C39.9998 29.3384 32.1452 37.1931 22.456 37.1931C12.7668 37.1931 4.91211 29.3384 4.91211 19.6492C4.91211 9.95999 12.7668 2.10527 22.456 2.10527C32.1452 2.10527 39.9998 9.95999 39.9998 19.6492Z" stroke="white" stroke-width="1.9" stroke-linejoin="round"/>
<path d="M5.26316 24.9123C8.16993 24.9123 10.5263 22.5559 10.5263 19.6491C10.5263 16.7424 8.16993 14.386 5.26316 14.386C2.3564 14.386 0 16.7424 0 19.6491C0 22.5559 2.3564 24.9123 5.26316 24.9123Z" fill="white"/>
<path d="M30.5268 10.5263C33.4336 10.5263 35.79 8.16993 35.79 5.26316C35.79 2.3564 33.4336 0 30.5268 0C27.6201 0 25.2637 2.3564 25.2637 5.26316C25.2637 8.16993 27.6201 10.5263 30.5268 10.5263Z" fill="white"/>
<path d="M30.5268 41.7544C33.4336 41.7544 35.79 39.398 35.79 36.4913C35.79 33.5845 33.4336 31.2281 30.5268 31.2281C27.6201 31.2281 25.2637 33.5845 25.2637 36.4913C25.2637 39.398 27.6201 41.7544 30.5268 41.7544Z" fill="white"/>
</svg>
