<?xml version="1.0" encoding="utf-8"?>
<!-- Generator: Adobe Illustrator 20.1.0, SVG Export Plug-In . SVG Version: 6.00 Build 0)  -->
<svg version="1.1" id="Layer_1" xmlns="http://www.w3.org/2000/svg" xmlns:xlink="http://www.w3.org/1999/xlink" x="0px" y="0px"
	 viewBox="0 0 82.3 95" style="enable-background:new 0 0 82.3 95;" xml:space="preserve">
<g>
	<rect x="17.3" y="27.5" transform="matrix(0.7206 -0.6934 0.6934 0.7206 -15.716 40.1366)" width="49.2" height="24.2"/>
	<path d="M81.2,18.5c1.5-1.4,1.5-3.8,0.1-5.2L69.7,1.1c-1.4-1.5-3.8-1.5-5.2-0.1l-7.4,7.1l16.8,17.5L81.2,18.5z"/>
	<path d="M5.9,78.2l13.6-1.4c0.8-0.1,1.6-0.4,2.2-1l5.2-5L10.1,53.3l-5.2,5c-0.6,0.6-1,1.3-1.1,2.1L1.9,73.9
		C1.5,76.4,3.5,78.5,5.9,78.2z"/>
	<path d="M77.4,85.6H4.7c-2.6,0-4.7,2.1-4.7,4.7S2.1,95,4.7,95h72.6c2.6,0,4.7-2.1,4.7-4.7C82.1,87.7,80,85.6,77.4,85.6z"/>
</g>
</svg>
