<svg width="58" height="90" viewBox="0 0 58 90" fill="none" xmlns="http://www.w3.org/2000/svg">
<path fill-rule="evenodd" clip-rule="evenodd" d="M34.95 53.551V67.5C37.483 66.967 39.433 66.016 40.8 64.65C42.067 63.382 42.7 61.882 42.7 60.15C42.7 58.55 41.967 57.199 40.5 56.099C39.367 55.266 37.517 54.416 34.95 53.551ZM20 32.9C21.1 33.699 22.817 34.482 25.15 35.25V22.699C22.917 23.033 21.184 23.801 19.95 25C18.683 26.1 18.05 27.551 18.05 29.35C18.05 30.717 18.7 31.9 20 32.9ZM33.3 0C33.766 0 34.15 0.166 34.45 0.5C34.783 0.766 34.95 1.15 34.95 1.65V9.849C43.383 10.783 50.4 13.849 56 19.05C56.367 19.316 56.55 19.716 56.55 20.249C56.55 20.649 56.417 20.999 56.15 21.3H56.2L50.15 29.8C49.817 30.198 49.417 30.4 48.95 30.4C48.55 30.4 48.183 30.283 47.85 30.05C44.383 26.816 40.083 24.583 34.95 23.349V37.65C41.917 39.382 47.05 41.449 50.35 43.849C55.25 47.382 57.7 52.316 57.7 58.65C57.7 64.65 55.817 69.55 52.05 73.349C48.05 77.482 42.35 79.915 34.95 80.65V88.349C34.95 88.783 34.783 89.165 34.45 89.499C34.15 89.833 33.766 89.999 33.3 89.999H26.8C26.366 89.999 25.983 89.833 25.65 89.499C25.317 89.165 25.15 88.782 25.15 88.349V80.65C15.184 79.816 7.017 76.216 0.65 69.849C0.217 69.515 0 69.083 0 68.55C0 68.216 0.133 67.866 0.4 67.499L6.3 58.849C6.633 58.283 7.1 57.999 7.7 57.999C8.033 57.999 8.367 58.116 8.7 58.349L8.75 58.449L8.9 58.5C13.434 63.166 18.85 66.1 25.15 67.301V51.25C18.283 49.551 13.25 47.516 10.05 45.15C5.283 41.716 2.9 36.834 2.9 30.5C2.9 25.133 4.85 20.533 8.75 16.699C12.85 12.699 18.317 10.334 25.15 9.599V1.65C25.15 1.15 25.317 0.765 25.65 0.5C25.983 0.166 26.367 0 26.8 0H33.3Z" fill="white"/>
</svg>
