<svg width="27" height="34" viewBox="0 0 27 34" fill="none" xmlns="http://www.w3.org/2000/svg">
<g clip-path="url(#clip0)">
<path d="M16.2 4.07999C16.2 2.57773 14.9913 1.35999 13.5 1.35999C12.0088 1.35999 10.8 2.57773 10.8 4.07999C10.8 5.58224 12.0088 6.79998 13.5 6.79998C14.9913 6.79998 16.2 5.58224 16.2 4.07999ZM16.2 23.12C16.2 21.6177 14.9913 20.4 13.5 20.4C12.0088 20.4 10.8 21.6177 10.8 23.12C10.8 24.6222 12.0088 25.84 13.5 25.84C14.9913 25.84 16.2 24.6222 16.2 23.12ZM16.2 13.6C16.2 12.0977 14.9913 10.88 13.5 10.88C12.0088 10.88 10.8 12.0977 10.8 13.6C10.8 15.1022 12.0088 16.32 13.5 16.32C14.9913 16.32 16.2 15.1022 16.2 13.6Z" fill="white"/>
</g>
<defs>
<clipPath id="clip0">
<rect width="27" height="34" fill="white"/>
</clipPath>
</defs>
</svg>
