<?xml version="1.0" encoding="utf-8"?>
<svg id="master-artboard" viewBox="0 0 619.41845703125 148.4783477783203" version="1.1" xmlns="http://www.w3.org/2000/svg" x="0px" y="0px" style="enable-background:new 0 0 336 235.2;" width="619.41845703125px" height="148.4783477783203px"><rect id="ee-background" x="0" y="0" width="619.41845703125" height="148.4783477783203" style="fill: white; fill-opacity: 0; pointer-events: none;"/><defs><style id="ee-google-fonts">@import url(https://fonts.googleapis.com/css?family=Merriweather:300,300italic,400,400italic,700,700italic,900,900italic);</style></defs><path d="M 311.8863220214844 260.4378356933594 L 311.8863220214844 250.79782104492188 L 355.7763366699219 250.79782104492188 L 355.7763366699219 260.4378356933594 L 344.29632568359375 262.4878234863281 L 361.17633056640625 324.4878234863281 L 363.7063293457031 338.017822265625 L 366.0963439941406 324.4878234863281 L 380.3863525390625 274.44781494140625 L 376.42633056640625 262.4178466796875 L 367.67633056640625 260.4378356933594 L 367.67633056640625 250.79782104492188 L 413.2663269042969 250.79782104492188 L 413.2663269042969 260.4378356933594 L 400.2763366699219 262.4178466796875 L 417.236328125 324.4878234863281 L 420.17633056640625 339.0478210449219 L 422.56634521484375 324.4878234863281 L 438.1463317871094 262.4178466796875 L 425.986328125 260.4378356933594 L 425.986328125 250.79782104492188 L 460.3663330078125 250.79782104492188 L 460.3663330078125 260.4378356933594 L 451.54632568359375 262.4878234863281 L 425.0963439941406 355.517822265625 L 404.3763427734375 355.517822265625 L 386.2663269042969 293.3178405761719 L 368.9663391113281 355.517822265625 L 348.66632080078125 355.517822265625 L 320.0963439941406 262.4878234863281 L 311.8863220214844 260.4378356933594 ZM 507.0544128417969 304.0478210449219 C 507.0544128417969 300.6278381347656 506.677734375 297.91448974609375 505.9244079589844 295.9078369140625 C 505.17108154296875 293.9078369140625 503.79107666015625 292.40447998046875 501.7843933105469 291.3978271484375 C 499.7843933105469 290.3978271484375 496.9143981933594 289.8978271484375 493.1744079589844 289.8978271484375 C 488.5277404785156 289.8978271484375 484.32440185546875 290.4111633300781 480.56439208984375 291.4378356933594 C 476.8044128417969 292.45782470703125 473.03106689453125 293.7911682128906 469.2444152832031 295.4378356933594 L 469.1844177246094 295.4378356933594 L 464.7344055175781 286.20782470703125 C 466.2410583496094 284.9278259277344 468.73773193359375 283.43450927734375 472.2243957519531 281.72784423828125 C 475.7110595703125 280.02117919921875 479.7877502441406 278.517822265625 484.45440673828125 277.21783447265625 C 489.12774658203125 275.9178466796875 493.9044189453125 275.267822265625 498.7843933105469 275.267822265625 C 506.0710754394531 275.267822265625 511.80108642578125 276.2144775390625 515.9744262695312 278.1078186035156 C 520.1410522460938 279.9945068359375 523.1143798828125 282.99114990234375 524.8944091796875 287.09783935546875 C 526.667724609375 291.19781494140625 527.5543823242188 296.7344970703125 527.5543823242188 303.70782470703125 L 527.5543823242188 345.6078186035156 L 535.014404296875 345.6078186035156 L 535.014404296875 354.287841796875 C 532.687744140625 354.79449462890625 529.7710571289062 355.2978210449219 526.264404296875 355.7978210449219 C 522.7510986328125 356.2978210449219 519.6743774414062 356.5478210449219 517.034423828125 356.5478210449219 C 514.6143798828125 356.5478210449219 512.7577514648438 356.3311767578125 511.46441650390625 355.8978271484375 C 510.1643981933594 355.4645080566406 509.2410583496094 354.691162109375 508.69439697265625 353.57781982421875 C 508.1477355957031 352.45782470703125 507.8743896484375 350.82781982421875 507.8743896484375 348.6878356933594 L 507.8743896484375 346.5678405761719 C 505.6410827636719 349.1611633300781 502.611083984375 351.451171875 498.7843933105469 353.4378356933594 C 494.9510803222656 355.4178161621094 490.55108642578125 356.4078369140625 485.58441162109375 356.4078369140625 C 481.2110595703125 356.4078369140625 477.21441650390625 355.5078430175781 473.5943908691406 353.70782470703125 C 469.9677429199219 351.9078369140625 467.08441162109375 349.2544860839844 464.94439697265625 345.7478332519531 C 462.7977294921875 342.2344970703125 461.7243957519531 337.9945068359375 461.7243957519531 333.02783203125 C 461.7243957519531 324.4611511230469 465.73773193359375 318.00115966796875 473.764404296875 313.6478271484375 C 481.7843933105469 309.3011474609375 492.8810729980469 307.0578308105469 507.0544128417969 306.9178466796875 L 507.0544128417969 304.0478210449219 M 507.0544128417969 316.1478271484375 C 499.4410705566406 316.1944885253906 493.937744140625 317.5611572265625 490.5444030761719 320.2478332519531 C 487.15106201171875 322.93450927734375 485.45440673828125 326.3511657714844 485.45440673828125 330.4978332519531 C 485.45440673828125 334.691162109375 486.42108154296875 337.9178161621094 488.3544006347656 340.1778259277344 C 490.2944030761719 342.43115234375 492.9044189453125 343.5578308105469 496.18438720703125 343.5578308105469 C 497.7777404785156 343.5578308105469 499.6343994140625 343.1378173828125 501.75439453125 342.2978210449219 C 503.8743896484375 341.451171875 505.6410827636719 340.39117431640625 507.0544128417969 339.1178283691406 L 507.0544128417969 316.1478271484375 ZM 536.0369262695312 285.9978332519531 L 536.0369262695312 277.0478210449219 L 575.7469482421875 277.0478210449219 L 575.7469482421875 285.9978332519531 L 566.5169677734375 287.77783203125 L 578.2769775390625 324.1478271484375 L 582.2469482421875 338.2978210449219 L 585.5269775390625 324.4178161621094 L 596.8069458007812 287.70782470703125 L 588.0569458007812 285.9978332519531 L 588.0569458007812 277.0478210449219 L 620.1869506835938 277.0478210449219 L 620.1869506835938 285.9978332519531 L 613.0769653320312 287.70782470703125 L 587.64697265625 355.9278259277344 L 569.5269775390625 355.9278259277344 L 541.7769775390625 287.77783203125 L 536.0369262695312 285.9978332519531 ZM 622.0948486328125 316.0078125 C 622.0948486328125 307.5811767578125 623.6781616210938 300.2911682128906 626.8448486328125 294.1378173828125 C 630.011474609375 287.9844970703125 634.4681396484375 283.267822265625 640.21484375 279.9878234863281 C 645.954833984375 276.701171875 652.608154296875 275.0578308105469 660.1748046875 275.0578308105469 C 669.7881469726562 275.0578308105469 677.1581420898438 277.4978332519531 682.2848510742188 282.3778381347656 C 687.4114990234375 287.25115966796875 690.088134765625 294.2478332519531 690.3148193359375 303.3678283691406 C 690.3148193359375 309.701171875 689.974853515625 314.5078125 689.2947998046875 317.787841796875 L 645.1348266601562 317.787841796875 C 645.6815185546875 326.17449951171875 647.7415161132812 332.3945007324219 651.3148193359375 336.44781494140625 C 654.8948364257812 340.5078430175781 659.648193359375 342.537841796875 665.5748291015625 342.537841796875 C 668.9881591796875 342.537841796875 672.551513671875 341.9444885253906 676.2648315429688 340.7578430175781 C 679.98486328125 339.5711669921875 683.0048217773438 338.2244873046875 685.3248291015625 336.71783447265625 L 689.2947998046875 345.19781494140625 C 687.69482421875 346.8844909667969 685.3348388671875 348.594482421875 682.21484375 350.32781982421875 C 679.0948486328125 352.0611572265625 675.5181884765625 353.5078430175781 671.48486328125 354.6678161621094 C 667.4514770507812 355.82781982421875 663.4081420898438 356.4078369140625 659.3548583984375 356.4078369140625 C 650.8748168945312 356.4078369140625 643.8548583984375 354.7211608886719 638.2948608398438 351.34783935546875 C 632.7348022460938 347.9811706542969 628.6448364257812 343.27783203125 626.0248413085938 337.2378234863281 C 623.4048461914062 331.19781494140625 622.0948486328125 324.12115478515625 622.0948486328125 316.0078125 M 668.5148315429688 308.4178466796875 L 668.5748291015625 302.6778259277344 C 668.5748291015625 296.9844970703125 667.7548217773438 292.5644836425781 666.1148071289062 289.4178466796875 C 664.474853515625 286.27117919921875 661.69482421875 284.69781494140625 657.7748413085938 284.69781494140625 C 655.1815185546875 284.69781494140625 652.9714965820312 285.36114501953125 651.1448364257812 286.6878356933594 C 649.3248291015625 288.0078125 647.8681640625 290.4111633300781 646.7748413085938 293.8978271484375 C 645.6815185546875 297.3844909667969 645.0648193359375 302.2244873046875 644.9248046875 308.4178466796875 L 668.5148315429688 308.4178466796875 ZM 709.7299194335938 344.44781494140625 L 709.7299194335938 291.8078308105469 L 701.3199462890625 289.07781982421875 L 701.3199462890625 278.27783203125 L 725.9999389648438 275.1278381347656 L 726.3399658203125 275.1278381347656 L 730.0999145507812 278.1378173828125 L 730.0999145507812 283.1278381347656 L 729.9599609375 286.27783203125 C 733.199951171875 283.2644958496094 737.3366088867188 280.701171875 742.3699340820312 278.58782958984375 C 747.4032592773438 276.46783447265625 752.5432739257812 275.4078369140625 757.7899169921875 275.4078369140625 C 763.4365844726562 275.4078369140625 767.8899536132812 276.4211730957031 771.1499633789062 278.44781494140625 C 774.409912109375 280.4744873046875 776.756591796875 283.7211608886719 778.18994140625 288.1878356933594 C 779.623291015625 292.65447998046875 780.3399658203125 298.7145080566406 780.3399658203125 306.3678283691406 L 780.3399658203125 344.3078308105469 L 788.5499267578125 345.537841796875 L 788.5499267578125 354.83782958984375 L 750.5399169921875 354.83782958984375 L 750.5399169921875 345.6778259277344 L 757.719970703125 344.3778381347656 L 757.719970703125 306.3678283691406 C 757.719970703125 301.8611755371094 757.4232788085938 298.3411560058594 756.8299560546875 295.8078308105469 C 756.2366333007812 293.2811584472656 755.1666259765625 291.42449951171875 753.6199340820312 290.2378234863281 C 752.0665893554688 289.0511474609375 749.833251953125 288.45782470703125 746.919921875 288.45782470703125 C 744.2732543945312 288.45782470703125 741.6399536132812 289.017822265625 739.0199584960938 290.1378173828125 C 736.3999633789062 291.25115966796875 734.1566162109375 292.5611572265625 732.2899169921875 294.0678405761719 L 732.2899169921875 344.3778381347656 L 740.219970703125 345.6778259277344 L 740.219970703125 354.83782958984375 L 701.7999267578125 354.83782958984375 L 701.7999267578125 345.6778259277344 L 709.7299194335938 344.44781494140625 ZM 805.088623046875 344.3078308105469 L 805.088623046875 253.52783203125 L 795.03857421875 251.74783325195312 L 795.03857421875 243.34783935546875 L 822.6585693359375 239.99783325195312 L 822.9985961914062 239.99783325195312 L 827.0985717773438 242.99783325195312 L 827.0985717773438 344.3078308105469 L 836.32861328125 345.6778259277344 L 836.32861328125 354.83782958984375 L 795.9285888671875 354.83782958984375 L 795.9285888671875 345.6778259277344 L 805.088623046875 344.3078308105469 ZM 849.1119995117188 371.8578186035156 C 849.745361328125 372.3178405761719 851.1119995117188 372.74114990234375 853.2120361328125 373.1278381347656 C 855.3053588867188 373.5144958496094 857.2186889648438 373.70782470703125 858.9520263671875 373.70782470703125 C 863.418701171875 373.70782470703125 867.1553344726562 372.2478332519531 870.1619873046875 369.32781982421875 C 873.168701171875 366.41448974609375 875.9486694335938 361.5845031738281 878.5020141601562 354.83782958984375 L 869.822021484375 354.83782958984375 L 844.2520141601562 287.77783203125 L 838.031982421875 285.9978332519531 L 838.031982421875 277.0478210449219 L 878.7120361328125 277.0478210449219 L 878.7120361328125 285.9978332519531 L 869.072021484375 287.77783203125 L 880.7620239257812 325.787841796875 L 884.9320068359375 340.27783203125 L 888.4119873046875 325.787841796875 L 899.281982421875 287.6378173828125 L 890.81201171875 285.9978332519531 L 890.81201171875 277.0478210449219 L 922.1820068359375 277.0478210449219 L 922.1820068359375 285.9978332519531 L 915.6220092773438 287.6378173828125 C 911.6087036132812 300.07781982421875 906.8453369140625 314.22784423828125 901.33203125 330.08782958984375 C 895.8186645507812 345.94781494140625 892.628662109375 354.8345031738281 891.7620239257812 356.7478332519531 C 889.0286865234375 364.18115234375 886.1820068359375 370.27783203125 883.2219848632812 375.037841796875 C 880.25537109375 379.7978210449219 876.8253173828125 383.43115234375 872.9320068359375 385.9378356933594 C 869.0386962890625 388.4444885253906 864.4686889648438 389.69781494140625 859.2219848632812 389.69781494140625 C 857.4020385742188 389.69781494140625 855.4786987304688 389.5744934082031 853.4520263671875 389.32781982421875 C 851.4253540039062 389.0744934082031 849.9786987304688 388.7445068359375 849.1119995117188 388.33782958984375 L 849.1119995117188 371.8578186035156 Z" transform="matrix(1, 0, 0, 1, -305.6403503417969, -245.7108917236328)" style="fill: rgb(0, 0, 0); white-space: pre; color: rgb(0, 0, 0);"/></svg>