<svg width="15" height="16" viewBox="0 0 15 16" fill="none" xmlns="http://www.w3.org/2000/svg">
<path d="M13.8947 7.56685C13.2405 10.7656 10.4098 13.1714 7.01817 13.1714C3.6268 13.1714 0.797357 10.7656 0.141972 7.56685C0.049628 8.02408 0 8.49749 0 8.98154C0 12.8582 3.14216 16 7.01817 16C10.8945 16 14.0366 12.8582 14.0366 8.98154C14.0366 8.49749 13.9882 8.02408 13.8947 7.56685Z" fill="#007AFF"/>
<path d="M3.79291 1.83649C3.47676 2.04416 3.17905 2.28739 2.90096 2.5649C0.681939 4.78445 0.681939 8.38301 2.90096 10.6023C4.01103 11.712 5.46496 12.2668 6.92006 12.2668C8.37487 12.2668 9.82939 11.712 10.9389 10.6023C11.2164 10.3251 11.4587 10.0256 11.6664 9.71027C10.7214 10.3346 9.63034 10.6467 8.53929 10.6467C7.08507 10.6467 5.62997 10.0922 4.52049 8.98245C2.57903 7.04069 2.33668 4.04281 3.79291 1.83649Z" fill="#007AFF"/>
<path d="M8.53134 0C5.95257 0.0002954 3.83972 2.06754 3.79588 4.65635C3.75092 7.27316 5.83429 9.43044 8.4517 9.47428C8.47994 9.47487 8.50765 9.47546 8.53595 9.47546C8.83366 9.47546 9.12557 9.44775 9.40715 9.39494C5.30351 4.51325 9.56756 0.113672 9.56756 0.113672C9.26057 0.0450197 8.94154 0.00602629 8.61441 0.000590782C8.5867 0.0002954 8.55899 0 8.53134 0Z" fill="#007AFF"/>
</svg>
