<?xml version="1.0" encoding="utf-8"?>
<!-- Generator: Adobe Illustrator 20.1.0, SVG Export Plug-In . SVG Version: 6.00 Build 0)  -->
<svg version="1.1" id="Layer_1" xmlns="http://www.w3.org/2000/svg" xmlns:xlink="http://www.w3.org/1999/xlink" x="0px" y="0px"
	 viewBox="0 0 1836.9 194.2" style="enable-background:new 0 0 1836.9 194.2;" xml:space="preserve">
<style type="text/css">
	.st0{fill:none;}
	.st1{fill:#FFFFFF;}
	.st2{font-family:'Avenir-Black';}
	.st3{font-size:200px;}
	.st4{letter-spacing:8;}
	.st5{letter-spacing:4;}
	.st6{letter-spacing:20;}
	.st7{letter-spacing:-22;}
	.st8{font-family:'Avenir-Medium';}
	.st9{letter-spacing:-36;}
	.st10{font-family:'Avenir-Book';}
	.st11{letter-spacing:-4;}
	.st12{letter-spacing:-16;}
</style>
<rect x="192.6" y="11.2" class="st0" width="2049.4" height="169.8"/>
<text transform="matrix(1 0 0 1 192.637 162.4473)"><tspan x="0" y="0" class="st1 st2 st3">O</tspan><tspan x="166.4" y="0" class="st1 st2 st3 st4">UT</tspan><tspan x="445.4" y="0" class="st1 st2 st3 st5">B</tspan><tspan x="579" y="0" class="st1 st2 st3 st6">L</tspan><tspan x="706.4" y="0" class="st1 st2 st3 st7">A</tspan><tspan x="831.8" y="0" class="st1 st2 st3">Y</tspan><tspan x="961.4" y="0" class="st1 st8 st3 st9"> </tspan><tspan x="981" y="0" class="st1 st10 st3 st11">D</tspan><tspan x="1125.2" y="0" class="st1 st10 st3 st5">IV</tspan><tspan x="1308.2" y="0" class="st1 st10 st3 st12">I</tspan><tspan x="1345" y="0" class="st1 st10 st3 st11">N</tspan><tspan x="1496.6" y="0" class="st1 st10 st3">G</tspan></text>
<path class="st1" d="M168.8,91.9c-7.8,38.4-41.8,67.2-82.5,67.2c-40.7,0-74.6-28.9-82.5-67.2c-1.1,5.5-1.7,11.2-1.7,17
	c0,46.5,37.7,84.2,84.2,84.2c46.5,0,84.2-37.7,84.2-84.2C170.5,103,170,97.4,168.8,91.9"/>
<path class="st1" d="M47.7,23.1c-3.8,2.5-7.4,5.4-10.7,8.7c-26.6,26.6-26.6,69.8,0,96.4c13.3,13.3,30.8,20,48.2,20
	c17.5,0,34.9-6.7,48.2-20c3.3-3.3,6.2-6.9,8.7-10.7c-11.3,7.5-24.4,11.2-37.5,11.2c-17.4,0-34.9-6.7-48.2-20
	C33.1,85.6,30.2,49.6,47.7,23.1"/>
<path class="st1" d="M104.5,1.1C73.6,1.1,48.2,25.9,47.7,57c-0.5,31.4,24.5,57.3,55.9,57.8c0.3,0,0.7,0,1,0c3.6,0,7.1-0.3,10.5-1
	C65.8,55.2,116.9,2.5,116.9,2.5c-3.7-0.8-7.5-1.3-11.4-1.4C105.2,1.1,104.8,1.1,104.5,1.1"/>
</svg>
