<?xml version="1.0" encoding="utf-8"?>
<!-- Generator: Adobe Illustrator 20.1.0, SVG Export Plug-In . SVG Version: 6.00 Build 0)  -->
<svg version="1.1" id="Layer_1" xmlns="http://www.w3.org/2000/svg" xmlns:xlink="http://www.w3.org/1999/xlink" x="0px" y="0px"
	 viewBox="0 0 1772.2 350" style="enable-background:new 0 0 1772.2 350;" xml:space="preserve">
<style type="text/css">
	.st0{fill:#FFFFFF;}
	.st1{fill:none;}
	.st2{font-family:'Avenir-Black';}
	.st3{font-size:285.816px;}
	.st4{letter-spacing:11;}
	.st5{letter-spacing:5;}
	.st6{letter-spacing:28;}
	.st7{letter-spacing:-31;}
</style>
<g>
	<path class="st0" d="M337.4,231.9c-42.8,56.7-98.4,80.1-168.1,60.9c-57.8-15.9-100.7-67.5-105.1-126.2
		C58.4,88.3,96.1,36.8,166.3,7.9C102.7,10.2,26.1,62.3,14.1,152.6c-11.6,87.7,46,167.9,131.2,185.8
		C236,357.4,313.7,301.6,337.4,231.9z M196.6,37.7C155.4,38.2,95.6,73.6,87.9,143.1c-7.3,66.2,40.2,125.4,105.2,132.4
		c67.8,7.3,114.4-40,125.3-77.2c-32.2,46.6-86.7,55-125.2,41c-39.6-14.4-68.1-51.2-69.5-94.4C122.1,91.9,149,57.2,196.6,37.7z
		 M218.2,72.6c-26.4,0.7-62.1,23.5-65.4,65.8c-3,38.8,25.7,73.2,63.6,77c33.2,3.4,71-19.9,74.9-45.9c-19.1,24.1-43.4,33.6-73.3,24.3
		c-24.1-7.5-41.8-30.3-43.1-54.8C173.3,107.1,188.6,85.6,218.2,72.6z"/>
	<path class="st0" d="M337.4,231.9C313.7,301.6,236,357.4,145.3,338.4C60.1,320.5,2.5,240.2,14.1,152.6
		c12-90.3,88.6-142.3,152.2-144.7C96.1,36.8,58.4,88.3,64.2,166.6c4.4,58.7,47.3,110.3,105.1,126.2C239,312,294.6,288.6,337.4,231.9
		z"/>
	<path class="st0" d="M196.6,37.7c-47.6,19.5-74.6,54.2-72.9,107.1c1.4,43.2,29.9,80,69.5,94.4c38.5,14,93,5.6,125.2-41
		c-10.9,37.2-57.5,84.5-125.3,77.2c-65-7-112.5-66.1-105.2-132.4C95.6,73.6,155.4,38.2,196.6,37.7z"/>
	<path class="st0" d="M218.2,72.6c-29.7,13-44.9,34.5-43.3,66.4c1.3,24.5,19,47.3,43.1,54.8c29.9,9.3,54.2-0.2,73.3-24.3
		c-3.8,26.1-41.7,49.3-74.9,45.9c-37.9-3.9-66.5-38.3-63.6-77C156.1,96.1,191.9,73.3,218.2,72.6z"/>
</g>
<rect x="378.8" y="60.9" class="st1" width="2928.8" height="242.7"/>
<text transform="matrix(1 0 0 1 378.8394 277.0457)" class="st0 st2 st3">O</text>
<text transform="matrix(1 0 0 1 616.6382 277.0457)" class="st0 st2 st3 st4">UT</text>
<text transform="matrix(1 0 0 1 1015.3521 277.0457)" class="st0 st2 st3 st5">B</text>
<text transform="matrix(1 0 0 1 1206.2759 277.0457)" class="st0 st2 st3 st6">L</text>
<text transform="matrix(1 0 0 1 1388.3413 277.0457)" class="st0 st2 st3 st7">A</text>
<text transform="matrix(1 0 0 1 1567.5474 277.0457)" class="st0 st2 st3">Y</text>
</svg>
