<?xml version="1.0" encoding="utf-8"?>
<!-- Generator: Adobe Illustrator 20.1.0, SVG Export Plug-In . SVG Version: 6.00 Build 0)  -->
<svg version="1.1" id="Layer_1" xmlns="http://www.w3.org/2000/svg" xmlns:xlink="http://www.w3.org/1999/xlink" x="0px" y="0px"
	 viewBox="0 0 324.8 334.3" style="enable-background:new 0 0 324.8 334.3;" xml:space="preserve">
<style type="text/css">
	.st0{fill:#1D222F;}
</style>
<g>
	<path class="st0" d="M324.8,224c-42.8,56.7-98.4,80.1-168.1,60.9C98.9,269,56,217.4,51.6,158.7C45.8,80.4,83.5,28.9,153.7,0
		C90.1,2.3,13.5,54.4,1.5,144.7c-11.6,87.7,46,167.9,131.2,185.8C223.4,349.5,301.1,293.7,324.8,224z M184,29.8
		C142.8,30.3,83,65.7,75.3,135.2c-7.3,66.2,40.2,125.4,105.2,132.4c67.8,7.3,114.4-40,125.3-77.2c-32.2,46.6-86.7,55-125.2,41
		C141,217,112.5,180.2,111.1,137C109.5,84,136.4,49.3,184,29.8z M205.6,64.7c-26.4,0.7-62.1,23.5-65.4,65.8
		c-3,38.8,25.7,73.2,63.6,77c33.2,3.4,71-19.9,74.9-45.9c-19.1,24.1-43.4,33.6-73.3,24.3c-24.1-7.5-41.8-30.3-43.1-54.8
		C160.7,99.2,176,77.7,205.6,64.7z"/>
	<path class="st0" d="M324.8,224c-23.7,69.7-101.4,125.5-192.1,106.5C47.5,312.6-10.1,232.3,1.5,144.7C13.5,54.4,90.1,2.4,153.7,0
		C83.5,28.9,45.8,80.4,51.6,158.7C56,217.4,98.9,269,156.7,284.9C226.4,304.1,282,280.7,324.8,224z"/>
	<path class="st0" d="M184,29.8c-47.6,19.5-74.6,54.2-72.9,107.1c1.4,43.2,29.9,80,69.5,94.4c38.5,14,93,5.6,125.2-41
		c-10.9,37.2-57.5,84.5-125.3,77.2c-65-7-112.5-66.1-105.2-132.4C83,65.7,142.8,30.3,184,29.8z"/>
	<path class="st0" d="M205.6,64.7c-29.7,13-44.9,34.5-43.3,66.4c1.3,24.5,19,47.3,43.1,54.8c29.9,9.3,54.2-0.2,73.3-24.3
		c-3.8,26.1-41.7,49.3-74.9,45.9c-37.9-3.9-66.5-38.3-63.6-77C143.5,88.2,179.3,65.4,205.6,64.7z"/>
</g>
</svg>
