<?xml version="1.0" encoding="utf-8"?>
<!-- Generator: Adobe Illustrator 20.1.0, SVG Export Plug-In . SVG Version: 6.00 Build 0)  -->
<svg version="1.1" id="Layer_1" xmlns="http://www.w3.org/2000/svg" xmlns:xlink="http://www.w3.org/1999/xlink" x="0px" y="0px"
	 viewBox="0 0 34 34" style="enable-background:new 0 0 34 34;" xml:space="preserve">
<style type="text/css">
	.st0{opacity:0.7;}
	.st1{fill:#1D222F;}
</style>
<g class="st0">
	<path class="st1" d="M24.5,23.1l9.2,9.2c0.4,0.4,0.4,1,0,1.4C33.5,33.9,33.3,34,33,34c-0.3,0-0.5-0.1-0.7-0.3l-9.2-9.2
		c-2.5,2.1-5.6,3.4-9.1,3.4c-7.7,0-14-6.3-14-14C0,6.3,6.3,0,14,0c7.7,0,14,6.3,14,14C27.9,17.5,26.6,20.7,24.5,23.1z M14,2
		C7.4,2,2,7.4,2,14c0,6.6,5.4,12,12,12c6.6,0,12-5.4,12-12C26,7.4,20.6,2,14,2z"/>
</g>
</svg>
