<?xml version="1.0" encoding="utf-8"?>
<!-- Generator: Adobe Illustrator 20.1.0, SVG Export Plug-In . SVG Version: 6.00 Build 0)  -->
<svg version="1.1" id="Layer_1" xmlns="http://www.w3.org/2000/svg" xmlns:xlink="http://www.w3.org/1999/xlink" x="0px" y="0px"
	 viewBox="0 0 74.4 89.3" style="enable-background:new 0 0 74.4 89.3;" xml:space="preserve">
<title>website icon</title>
<path d="M69.7,61c-6.8-7.9-2-18.4-5.2-35.6C62.4,13.7,50.5,9.7,43.1,8.2V5.9c0-3.3-2.6-5.9-5.9-5.9c-3.3,0-5.9,2.6-5.9,5.9v2.3
	C23.9,9.7,12,13.7,9.8,25.4C6.6,42.6,11.4,53.1,4.6,61s-4.1,8.8-4.1,8.8h73.3C73.8,69.7,76.5,68.8,69.7,61z"/>
<path d="M37.9,89.3c7.2,0,13-5.9,13-13.1H24.8C24.8,83.5,30.7,89.3,37.9,89.3z"/>
</svg>
