<?xml version="1.0" encoding="utf-8"?>
<!-- Generator: Adobe Illustrator 20.1.0, SVG Export Plug-In . SVG Version: 6.00 Build 0)  -->
<svg version="1.1" id="Layer_1" xmlns="http://www.w3.org/2000/svg" xmlns:xlink="http://www.w3.org/1999/xlink" x="0px" y="0px"
	 viewBox="0 0 41 42" style="enable-background:new 0 0 41 42;" xml:space="preserve">
<style type="text/css">
	.st0{fill:none;stroke:#000000;stroke-width:1.9;stroke-linejoin:round;}
	.st1{stroke:#000000;stroke-miterlimit:10;}
</style>
<path class="st0" d="M40,19.6c0,9.7-7.9,17.5-17.5,17.5S4.9,29.3,4.9,19.6c0-9.7,7.9-17.5,17.5-17.5S40,10,40,19.6z"/>
<path class="st1" d="M5.3,24.9c2.9,0,5.3-2.4,5.3-5.3c0-2.9-2.4-5.3-5.3-5.3c-2.9,0-5.3,2.4-5.3,5.3C0,22.6,2.4,24.9,5.3,24.9z"/>
<path class="st1" d="M30.5,10.5c2.9,0,5.3-2.4,5.3-5.3c0-2.9-2.4-5.3-5.3-5.3c-2.9,0-5.3,2.4-5.3,5.3C25.3,8.2,27.6,10.5,30.5,10.5z
	"/>
<path class="st1" d="M30.5,41.8c2.9,0,5.3-2.4,5.3-5.3c0-2.9-2.4-5.3-5.3-5.3c-2.9,0-5.3,2.4-5.3,5.3C25.3,39.4,27.6,41.8,30.5,41.8
	z"/>
</svg>
